<svg width="13" height="13" viewBox="0 0 13 13" fill="none" xmlns="http://www.w3.org/2000/svg">
  <path
    d="M6.35671 3.4053C4.7265 3.4053 3.41156 4.76564 3.41156 6.45215C3.41156 8.13866 4.7265 9.49901 6.35671 9.49901C7.98692 9.49901 9.30186 8.13866 9.30186 6.45215C9.30186 4.76564 7.98692 3.4053 6.35671 3.4053ZM6.35671 8.433C5.30322 8.433 4.44198 7.54467 4.44198 6.45215C4.44198 5.35963 5.30066 4.4713 6.35671 4.4713C7.41276 4.4713 8.27144 5.35963 8.27144 6.45215C8.27144 7.54467 7.4102 8.433 6.35671 8.433ZM10.1093 3.28066C10.1093 3.67577 9.80169 3.99133 9.42233 3.99133C9.04041 3.99133 8.73538 3.67312 8.73538 3.28066C8.73538 2.88821 9.04297 2.57 9.42233 2.57C9.80169 2.57 10.1093 2.88821 10.1093 3.28066ZM12.0599 4.00194C12.0163 3.04996 11.8061 2.20671 11.132 1.51195C10.4604 0.817193 9.64533 0.59975 8.72513 0.552019C7.77674 0.496332 4.93412 0.496332 3.98572 0.552019C3.06809 0.597099 2.25298 0.814542 1.57885 1.5093C0.904726 2.20406 0.697105 3.04731 0.650967 3.99929C0.597139 4.98043 0.597139 7.92122 0.650967 8.90236C0.694541 9.85434 0.904726 10.6976 1.57885 11.3924C2.25298 12.0871 3.06553 12.3046 3.98572 12.3523C4.93412 12.408 7.77674 12.408 8.72513 12.3523C9.64533 12.3072 10.4604 12.0898 11.132 11.3924C11.8036 10.6976 12.0138 9.85434 12.0599 8.90236C12.1137 7.92122 12.1137 4.98308 12.0599 4.00194ZM10.8347 9.95511C10.6347 10.4748 10.2477 10.8753 9.74273 11.0847C8.98658 11.395 7.19232 11.3234 6.35671 11.3234C5.5211 11.3234 3.72428 11.3924 2.97069 11.0847C2.46829 10.8779 2.08125 10.4775 1.87875 9.95511C1.57885 9.17284 1.64806 7.31662 1.64806 6.45215C1.64806 5.58768 1.58142 3.72881 1.87875 2.9492C2.07868 2.42945 2.46573 2.02904 2.97069 1.81955C3.72684 1.5093 5.5211 1.5809 6.35671 1.5809C7.19232 1.5809 8.98914 1.51195 9.74273 1.81955C10.2451 2.02639 10.6322 2.4268 10.8347 2.9492C11.1346 3.73146 11.0654 5.58768 11.0654 6.45215C11.0654 7.31662 11.1346 9.17549 10.8347 9.95511Z"
    fill="black" />
</svg>