<svg width="57" height="75" viewBox="0 0 57 75" fill="none" xmlns="http://www.w3.org/2000/svg">
  <path
    d="M28.499 51.4834C20.7885 51.4834 14.5156 45.2105 14.5156 37.4999C14.5156 29.7893 20.7885 23.5164 28.499 23.5164C36.2095 23.5164 42.4824 29.7893 42.4824 37.4999C42.4824 45.2105 36.2095 51.4834 28.499 51.4834ZM28.499 26.446C22.404 26.446 17.4453 31.4048 17.4453 37.4999C17.4453 43.595 22.4041 48.5538 28.499 48.5538C34.594 48.5538 39.5527 43.595 39.5527 37.4999C39.5527 31.4048 34.5941 26.446 28.499 26.446Z"
    fill="url(#paint0_linear_134_301)" />
  <path
    d="M27.5024 42.0463C27.1301 42.0463 26.7576 41.9052 26.4722 41.6226L23.3579 38.5413C22.7828 37.9724 22.7779 37.0448 23.3468 36.4697C23.9159 35.8948 24.8433 35.8898 25.4184 36.4588L27.4969 38.5153L32.6292 33.3829C33.2013 32.811 34.1288 32.811 34.701 33.3829C35.273 33.9549 35.273 34.8824 34.701 35.4546L28.5384 41.6172C28.2523 41.9033 27.8773 42.0463 27.5024 42.0463Z"
    fill="url(#paint1_linear_134_301)" />
  <path
    d="M28.498 75C28.2808 75 28.0635 74.9518 27.8628 74.8553C21.979 72.0243 16.6101 68.2938 11.9053 63.7673C9.40522 61.3629 7.09341 58.7268 5.03428 55.9326C1.91021 51.6933 0.259033 46.6611 0.259033 41.3804V12.4869C0.259033 11.678 0.914843 11.0221 1.72388 11.0221C11.6854 11.0221 21.0581 7.17085 27.4383 0.455859C27.7149 0.164795 28.0988 0 28.5003 0H28.5005C28.902 0 29.2859 0.164941 29.5625 0.456006C35.9404 7.17085 45.3122 11.0221 55.2745 11.0221C56.0835 11.0221 56.7393 11.678 56.7393 12.4869V22.1493C56.7393 22.9582 56.0835 23.6142 55.2745 23.6142C54.4654 23.6142 53.8096 22.9582 53.8096 22.1493V13.9258C44.1301 13.5836 35.0524 9.8584 28.5002 3.54316C21.9463 9.85781 12.8669 13.5832 3.18887 13.9258V41.3802C3.18887 46.0311 4.64258 50.4621 7.39297 54.1944C9.3541 56.8556 11.5556 59.366 13.9366 61.656C18.2473 65.8033 23.1434 69.249 28.4983 71.9051C33.853 69.2505 38.7497 65.8047 43.0619 61.6562C45.4432 59.3657 47.6451 56.8545 49.6067 54.1919C52.3563 50.4598 53.8098 46.0291 53.8098 41.3792V35.3331C53.8098 34.524 54.4656 33.8682 55.2746 33.8682C56.0836 33.8682 56.7395 34.524 56.7395 35.3331V41.3792C56.7395 46.6589 55.0886 51.6904 51.9654 55.9296C49.9057 58.7254 47.5934 61.3624 45.0931 63.7674C40.3867 68.2956 35.0168 72.0261 29.133 74.8553C28.9323 74.9518 28.7151 75 28.498 75Z"
    fill="url(#paint2_linear_134_301)" />
  <path
    d="M55.2742 30.2059C56.0832 30.2059 56.739 29.5501 56.739 28.7411C56.739 27.9321 56.0832 27.2762 55.2742 27.2762C54.4652 27.2762 53.8093 27.9321 53.8093 28.7411C53.8093 29.5501 54.4652 30.2059 55.2742 30.2059Z"
    fill="url(#paint3_linear_134_301)" />
  <path
    d="M28.4979 68.4149C28.2556 68.4149 28.0134 68.355 27.7943 68.2348C23.489 65.877 19.5097 62.9533 15.967 59.5449C13.7048 57.3692 11.6132 54.9843 9.75049 52.4564C7.37393 49.2313 6.11768 45.4013 6.11768 41.3804V17.9686C6.11768 17.2325 6.66392 16.6105 7.39399 16.5159C14.9025 15.5416 21.8883 12.6666 27.5965 8.20157C28.1267 7.78702 28.8714 7.78688 29.4017 8.20172C35.1091 12.6667 42.0945 15.5418 49.6029 16.516C50.3328 16.6107 50.8792 17.2326 50.8792 17.9687V41.3791C50.8792 45.3992 49.6232 49.2289 47.2473 52.4541C45.3838 54.9833 43.2922 57.3688 41.0303 59.5442C37.4861 62.9541 33.5062 65.878 29.2013 68.2347C28.9821 68.3549 28.7398 68.4149 28.4979 68.4149ZM9.04722 19.2377V41.3803C9.04722 44.7713 10.1059 48.0002 12.1087 50.7182C13.8734 53.113 15.8548 55.3723 17.9979 57.4335C21.1602 60.476 24.6891 63.1104 28.4979 65.2729C32.306 63.1114 35.8353 60.4769 38.999 57.4331C41.1417 55.3722 43.123 53.1124 44.8883 50.7163C46.8909 47.9982 47.9492 44.7693 47.9492 41.3791V19.2379C40.7921 18.108 34.1136 15.3468 28.4987 11.1957C22.8834 15.3468 16.2044 18.1079 9.04722 19.2377Z"
    fill="url(#paint4_linear_134_301)" />
  <defs>
    <linearGradient id="paint0_linear_134_301" x1="28.499" y1="23.5164" x2="28.499" y2="51.4834"
      gradientUnits="userSpaceOnUse">
      <stop stop-color="#03BAFE" />
      <stop offset="1" stop-color="#0068FF" />
    </linearGradient>
    <linearGradient id="paint1_linear_134_301" x1="29.0267" y1="32.954" x2="29.0267" y2="42.0463"
      gradientUnits="userSpaceOnUse">
      <stop stop-color="#03BAFE" />
      <stop offset="1" stop-color="#0068FF" />
    </linearGradient>
    <linearGradient id="paint2_linear_134_301" x1="28.4992" y1="0" x2="28.4992" y2="75" gradientUnits="userSpaceOnUse">
      <stop stop-color="#03BAFE" />
      <stop offset="1" stop-color="#0068FF" />
    </linearGradient>
    <linearGradient id="paint3_linear_134_301" x1="55.2742" y1="27.2762" x2="55.2742" y2="30.2059"
      gradientUnits="userSpaceOnUse">
      <stop stop-color="#03BAFE" />
      <stop offset="1" stop-color="#0068FF" />
    </linearGradient>
    <linearGradient id="paint4_linear_134_301" x1="28.4984" y1="7.89062" x2="28.4984" y2="68.4149"
      gradientUnits="userSpaceOnUse">
      <stop stop-color="#03BAFE" />
      <stop offset="1" stop-color="#0068FF" />
    </linearGradient>
  </defs>
</svg>