<svg width="63" height="75" viewBox="0 0 63 75" fill="none" xmlns="http://www.w3.org/2000/svg">
  <path
    d="M55.1817 29.9763H27.2425C28.5345 28.4912 29.3195 26.5541 29.3195 24.4357C29.3195 19.7742 25.5271 15.9818 20.8656 15.9818C16.204 15.9818 12.4116 19.7742 12.4116 24.4357C12.4116 26.5541 13.1966 28.4912 14.4884 29.9763H7.81905C3.78885 29.9763 0.51001 33.2551 0.51001 37.2853V45.9099C0.51001 46.7172 1.16446 47.3717 1.97182 47.3717C2.77918 47.3717 3.43363 46.7172 3.43363 45.9099V37.2853C3.43363 34.8672 5.40093 32.8999 7.81905 32.8999H48.7497C51.1678 32.8999 53.1351 34.8672 53.1351 37.2853V45.1791H37.9323C33.9021 45.1791 30.6233 48.458 30.6233 52.4882C30.6233 56.5184 33.9021 59.7972 37.9323 59.7972H53.1351V67.691C53.1351 70.1091 51.1678 72.0764 48.7497 72.0764H7.81905C5.40093 72.0764 3.43363 70.1091 3.43363 67.691V59.0549C3.43363 58.2475 2.77918 57.5931 1.97182 57.5931C1.16446 57.5931 0.51001 58.2475 0.51001 59.0549V67.691C0.51001 71.7212 3.78885 75 7.81905 75H55.1817C59.2119 75 62.4907 71.7212 62.4907 67.691V37.2853C62.4907 33.2551 59.2119 29.9763 55.1817 29.9763ZM20.8656 18.9056C23.915 18.9056 26.3959 21.3864 26.3959 24.4359C26.3959 27.4854 23.915 29.9662 20.8656 29.9662C17.8162 29.9662 15.3352 27.4854 15.3352 24.4359C15.3352 21.3864 17.8161 18.9056 20.8656 18.9056ZM54.593 32.8999H55.1817C57.5998 32.8999 59.5671 34.8672 59.5671 37.2853V45.1791H56.0587V37.2853C56.0587 35.6413 55.5128 34.1224 54.593 32.8999ZM33.5469 52.4882C33.5469 50.07 35.5142 48.1027 37.9323 48.1027H59.5671V56.8736H37.9323C35.5142 56.8736 33.5469 54.9063 33.5469 52.4882ZM55.1817 72.0764H54.593C55.5128 70.8539 56.0587 69.3352 56.0587 67.691V59.7972H59.5671V67.691C59.5671 70.1091 57.5998 72.0764 55.1817 72.0764Z"
    fill="url(#paint0_linear_134_280)" />
  <path
    d="M37.558 51.0261C37.1721 51.0261 36.7949 51.1825 36.523 51.4544C36.2511 51.7263 36.0962 52.1035 36.0962 52.4879C36.0962 52.8724 36.2511 53.2495 36.523 53.5214C36.7964 53.7933 37.1721 53.9497 37.558 53.9497C37.9425 53.9497 38.3181 53.7933 38.5915 53.5214C38.8634 53.2495 39.0198 52.8724 39.0198 52.4879C39.0198 52.1035 38.8634 51.7263 38.5915 51.4544C38.3196 51.1824 37.9425 51.0261 37.558 51.0261Z"
    fill="url(#paint1_linear_134_280)" />
  <path
    d="M42.1348 20.1234C46.7964 20.1234 50.5888 16.3311 50.5888 11.6695C50.5888 7.00809 46.7964 3.21558 42.1348 3.21558C37.4733 3.21558 33.6809 7.00795 33.6809 11.6695C33.6809 16.3311 37.4733 20.1234 42.1348 20.1234ZM42.1348 6.13934C45.1842 6.13934 47.6651 8.62018 47.6651 11.6697C47.6651 14.7191 45.1843 17.2 42.1348 17.2C39.0854 17.2 36.6045 14.7191 36.6045 11.6697C36.6045 8.62018 39.0854 6.13934 42.1348 6.13934Z"
    fill="url(#paint2_linear_134_280)" />
  <path
    d="M27.8571 14.4107C28.6644 14.4107 29.3189 13.7562 29.3189 12.9488V1.46181C29.3189 0.654452 28.6644 0 27.8571 0C27.0497 0 26.3953 0.654452 26.3953 1.46181V12.9488C26.3953 13.7562 27.0497 14.4107 27.8571 14.4107Z"
    fill="url(#paint3_linear_134_280)" />
  <path
    d="M20.8402 9.35558C21.6476 9.35558 22.302 8.70112 22.302 7.89377V1.46181C22.302 0.654452 21.6476 0 20.8402 0C20.0329 0 19.3784 0.654452 19.3784 1.46181V7.89377C19.3784 8.70112 20.0329 9.35558 20.8402 9.35558Z"
    fill="url(#paint4_linear_134_280)" />
  <path
    d="M1.97182 53.9497C2.35628 53.9497 2.73342 53.7933 3.00532 53.5214C3.27722 53.2495 3.43363 52.8724 3.43363 52.4879C3.43363 52.1035 3.27722 51.7263 3.00532 51.4544C2.73342 51.1825 2.35774 51.0261 1.97182 51.0261C1.58736 51.0261 1.21022 51.1825 0.93832 51.4544C0.666423 51.7263 0.51001 52.1035 0.51001 52.4879C0.51001 52.8724 0.666423 53.2495 0.93832 53.5214C1.21022 53.7933 1.58722 53.9497 1.97182 53.9497Z"
    fill="url(#paint5_linear_134_280)" />
  <defs>
    <linearGradient id="paint0_linear_134_280" x1="31.5004" y1="15.9818" x2="31.5004" y2="75"
      gradientUnits="userSpaceOnUse">
      <stop stop-color="#03BAFE" />
      <stop offset="1" stop-color="#0068FF" />
    </linearGradient>
    <linearGradient id="paint1_linear_134_280" x1="37.558" y1="51.0261" x2="37.558" y2="53.9497"
      gradientUnits="userSpaceOnUse">
      <stop stop-color="#03BAFE" />
      <stop offset="1" stop-color="#0068FF" />
    </linearGradient>
    <linearGradient id="paint2_linear_134_280" x1="42.1348" y1="3.21558" x2="42.1348" y2="20.1234"
      gradientUnits="userSpaceOnUse">
      <stop stop-color="#03BAFE" />
      <stop offset="1" stop-color="#0068FF" />
    </linearGradient>
    <linearGradient id="paint3_linear_134_280" x1="27.8571" y1="0" x2="27.8571" y2="14.4107"
      gradientUnits="userSpaceOnUse">
      <stop stop-color="#03BAFE" />
      <stop offset="1" stop-color="#0068FF" />
    </linearGradient>
    <linearGradient id="paint4_linear_134_280" x1="20.8402" y1="0" x2="20.8402" y2="9.35558"
      gradientUnits="userSpaceOnUse">
      <stop stop-color="#03BAFE" />
      <stop offset="1" stop-color="#0068FF" />
    </linearGradient>
    <linearGradient id="paint5_linear_134_280" x1="1.97182" y1="51.0261" x2="1.97182" y2="53.9497"
      gradientUnits="userSpaceOnUse">
      <stop stop-color="#03BAFE" />
      <stop offset="1" stop-color="#0068FF" />
    </linearGradient>
  </defs>
</svg>